<?xml version="1.0" standalone="no"?>
<!DOCTYPE svg PUBLIC "-//W3C//DTD SVG 20010904//EN"
 "http://www.w3.org/TR/2001/REC-SVG-20010904/DTD/svg10.dtd">
<svg version="1.0" xmlns="http://www.w3.org/2000/svg"
 width="506.000000pt" height="307.000000pt" viewBox="0 0 506.000000 307.000000"
 preserveAspectRatio="xMidYMid meet">

<g transform="translate(0.000000,307.000000) scale(0.100000,-0.100000)"
fill="#DDDDDD" stroke="none">
<path d="M2558 2871 c-71 -28 -113 -57 -162 -112 -39 -43 -55 -76 -92 -179 -3
-9 -14 8 -28 41 -41 101 -108 172 -205 218 -49 23 -69 26 -156 26 -93 0 -105
-2 -166 -32 -124 -62 -205 -178 -216 -312 l-6 -70 -27 42 c-38 60 -112 124
-178 155 -49 23 -70 27 -152 27 -88 0 -101 -3 -162 -33 -157 -77 -245 -240
-218 -404 5 -34 10 -66 10 -70 0 -3 -26 9 -57 28 -82 49 -151 67 -238 62 -136
-9 -255 -91 -318 -217 -30 -61 -32 -73 -32 -166 1 -88 4 -107 28 -156 35 -72
58 -102 118 -149 l49 -38 -51 -33 c-133 -85 -203 -259 -165 -409 44 -169 175
-283 344 -297 85 -7 186 20 252 68 33 24 41 27 35 13 -18 -43 -18 -185 0 -243
36 -119 135 -219 253 -257 78 -24 199 -16 273 18 67 30 127 82 169 145 l30 46
0 -44 c0 -141 94 -285 229 -348 49 -23 69 -26 156 -26 88 0 107 3 157 27 77
36 151 107 188 181 16 33 30 66 30 74 0 27 18 12 23 -20 16 -99 103 -209 205
-259 62 -31 73 -33 172 -33 95 0 110 3 160 28 112 57 189 159 214 280 l12 61
23 -46 c91 -190 323 -278 507 -194 71 33 154 112 187 179 31 63 48 157 40 217
l-6 42 48 -51 c56 -60 143 -106 230 -122 154 -28 324 60 395 204 58 120 59
234 3 348 l-28 56 95 -5 c80 -3 104 -1 153 18 72 27 131 72 179 135 52 69 72
133 72 230 -1 116 -29 181 -113 266 -81 81 -149 110 -258 113 -45 0 -71 5 -69
11 3 6 15 41 27 79 81 254 -137 520 -404 492 -79 -8 -173 -52 -236 -111 l-49
-45 -4 93 c-3 77 -9 103 -33 152 -37 76 -104 143 -180 181 -55 26 -69 29 -165
29 -92 0 -112 -3 -160 -26 -77 -37 -141 -97 -180 -171 l-34 -63 -7 47 c-18
121 -109 242 -224 295 -79 37 -214 43 -287 14z m124 -642 c77 -16 204 -79 270
-133 109 -89 201 -238 228 -369 16 -80 14 -249 -5 -322 -56 -218 -234 -413
-434 -475 -96 -30 -211 -36 -311 -16 -249 50 -441 235 -506 486 -23 86 -23
253 0 340 61 237 241 423 470 485 62 17 216 19 288 4z m-1432 -24 c20 -10 32
-27 39 -53 7 -23 11 -210 11 -499 l0 -463 258 -1 c277 0 317 -6 339 -49 16
-32 16 -138 0 -170 -22 -44 -64 -48 -437 -48 -379 0 -419 4 -454 51 -21 28
-21 39 -24 525 -2 273 -1 534 3 580 8 95 27 128 85 142 47 12 144 4 180 -15z
m2316 0 c49 -32 49 -31 52 -537 l3 -476 272 -4 c191 -2 278 -7 293 -15 42 -24
58 -130 30 -197 -11 -27 -22 -35 -59 -45 -56 -13 -702 -15 -761 -1 -22 5 -51
20 -65 35 l-26 25 -3 560 c-3 590 0 629 41 652 57 30 179 32 223 3z"/>
<path d="M2477 1920 c-62 -16 -110 -45 -160 -99 -75 -80 -92 -127 -92 -246 0
-93 2 -105 33 -167 35 -71 72 -110 149 -155 44 -25 57 -28 143 -28 86 0 100 3
148 29 66 37 116 92 151 165 22 48 26 69 26 151 0 81 -4 103 -27 152 -69 149
-227 234 -371 198z"/>
</g>
</svg>
